<svg xmlns="http://www.w3.org/2000/svg" viewBox="0 0 96 96" width="96" height="96"><defs><linearGradient id="l" x1="0" y1="0" x2="1" y2="0"><stop offset="0" stop-color="#3e2a1a"/><stop offset=".5" stop-color="#7a5234"/><stop offset="1" stop-color="#3e2a1a"/></linearGradient><linearGradient id="b" x1="0" y1="0" x2="0" y2="1"><stop offset="0" stop-color="#e6ebef"/><stop offset=".5" stop-color="#b3bcc4"/><stop offset="1" stop-color="#6f7880"/></linearGradient></defs><g stroke="#1d1a17" stroke-width="2.5" stroke-linejoin="round"><path d="M34 6h24v34l18 6c6 2 8 6 8 10v6H22V40z" fill="url(#l)"/><path d="M20 62h66v8H20z" fill="url(#b)"/><path d="M30 20h28M30 30h28" stroke="#c79a4a" stroke-width="3"/></g><path d="M52 74 46 82l6 4-4 8M52 74l10 8 8-2M52 74 38 80" fill="none" stroke="#1d1a17" stroke-width="2.5" stroke-linecap="round" stroke-linejoin="round"/><path d="M8 62 2 58M10 72 2 74M92 72l2 4" stroke="#f3dca0" stroke-width="3.5" stroke-linecap="round"/></svg>
